<?xml version="1.0" encoding="utf-8"?>
<svg xmlns="http://www.w3.org/2000/svg" xmlns:xlink="http://www.w3.org/1999/xlink" width="118" height="150">
  <path fill="#82A473" transform="matrix(1.1 0 0 1.05 59 75)" d="M-49 -66.5C-49 -67.6046 -48.1046 -68.5 -47 -68.5L47 -68.5C48.1046 -68.5 49 -67.6046 49 -66.5L49 67C49 68.1046 48.1046 69 47 69L-47 69C-48.1046 69 -49 68.1046 -49 67L-49 -66.5Z"></path>
  <path fill="#282828" transform="matrix(1 0 0 0.98 59 75)" d="M-49 -66.5C-49 -67.6046 -48.1046 -68.5 -47 -68.5L47 -68.5C48.1046 -68.5 49 -67.6046 49 -66.5L49 67C49 68.1046 48.1046 69 47 69L-47 69C-48.1046 69 -49 68.1046 -49 67L-49 -66.5Z"></path>
  <defs>
    <linearGradient id="gradient_0" gradientUnits="userSpaceOnUse" x1="-25" y1="0" x2="25" y2="0">
      <stop offset="0" stop-color="#82A473"></stop>
      <stop offset="0.32738096" stop-color="#82A473"></stop>
      <stop offset="0.64880955" stop-color="#404E3D"></stop>
      <stop offset="1" stop-color="#404E3D"></stop>
    </linearGradient>
  </defs>
  <path fill="url(#gradient_0)" transform="matrix(1.82425 0 0 1.81392 32.9352 29.1601)" d="M-10.5 -9.5L10 -9.5L10 10.5L-10.5 10.5L-10.5 -9.5Z"></path>
  <defs>
    <linearGradient id="gradient_1" gradientUnits="userSpaceOnUse" x1="-25" y1="0" x2="25" y2="0">
      <stop offset="0" stop-color="#82A473"></stop>
      <stop offset="0.32738096" stop-color="#82A473"></stop>
      <stop offset="0.64880955" stop-color="#404E3D"></stop>
      <stop offset="1" stop-color="#404E3D"></stop>
    </linearGradient>
  </defs>
  <path fill="url(#gradient_1)" transform="matrix(1.82425 0 0 1.81392 32.9352 74.5082)" d="M-10.5 -9.5L10 -9.5L10 10.5L-10.5 10.5L-10.5 -9.5Z"></path>
  <defs>
    <linearGradient id="gradient_2" gradientUnits="userSpaceOnUse" x1="-25" y1="0" x2="25" y2="0">
      <stop offset="0" stop-color="#82A473"></stop>
      <stop offset="0.32738096" stop-color="#82A473"></stop>
      <stop offset="0.64880955" stop-color="#404E3D"></stop>
      <stop offset="1" stop-color="#404E3D"></stop>
    </linearGradient>
  </defs>
  <path fill="url(#gradient_2)" transform="matrix(1.82425 0 0 1.81392 32.9352 120.763)" d="M-10.5 -9.5L10 -9.5L10 10.5L-10.5 10.5L-10.5 -9.5Z"></path>
  <defs>
    <linearGradient id="gradient_3" gradientUnits="userSpaceOnUse" x1="-25" y1="0" x2="25" y2="0">
      <stop offset="0" stop-color="#82A473"></stop>
      <stop offset="0.32738096" stop-color="#82A473"></stop>
      <stop offset="0.64880955" stop-color="#878787"></stop>
      <stop offset="1" stop-color="#878787"></stop>
    </linearGradient>
  </defs>
  <path fill="url(#gradient_3)" transform="matrix(1.82425 0 0 1.81392 76.7172 13.7418)" d="M-12.5 -0.999999L13 -0.999999L13 1.5L-12.5 1.5L-12.5 -0.999999Z"></path>
  <defs>
    <linearGradient id="gradient_4" gradientUnits="userSpaceOnUse" x1="-25" y1="0" x2="25" y2="0">
      <stop offset="0" stop-color="#82A473"></stop>
      <stop offset="0.32738096" stop-color="#82A473"></stop>
      <stop offset="0.64880955" stop-color="#878787"></stop>
      <stop offset="1" stop-color="#878787"></stop>
    </linearGradient>
  </defs>
  <path fill="url(#gradient_4)" transform="matrix(0.729701 0 0 1.81392 63.0353 20.0905)" d="M-12.5 -1L13 -1L13 1.5L-12.5 1.5L-12.5 -1Z"></path>
  <defs>
    <linearGradient id="gradient_5" gradientUnits="userSpaceOnUse" x1="-25" y1="0" x2="25" y2="0">
      <stop offset="0" stop-color="#82A473"></stop>
      <stop offset="0.32738096" stop-color="#82A473"></stop>
      <stop offset="0.64880955" stop-color="#878787"></stop>
      <stop offset="1" stop-color="#878787"></stop>
    </linearGradient>
  </defs>
  <path fill="url(#gradient_5)" transform="matrix(0.729701 0 0 1.81392 63.0353 26.4392)" d="M-12.5 -0.999999L13 -0.999999L13 1.5L-12.5 1.5L-12.5 -0.999999Z"></path>
  <defs>
    <linearGradient id="gradient_6" gradientUnits="userSpaceOnUse" x1="-25" y1="0" x2="25" y2="0">
      <stop offset="0" stop-color="#82A473"></stop>
      <stop offset="0.32738096" stop-color="#82A473"></stop>
      <stop offset="0.64880955" stop-color="#878787"></stop>
      <stop offset="1" stop-color="#878787"></stop>
    </linearGradient>
  </defs>
  <path fill="url(#gradient_6)" transform="matrix(1.82425 0 0 1.81392 77.1733 105.798)" d="M-12.5 -1L13 -1L13 1.5L-12.5 1.5L-12.5 -1Z"></path>
  <defs>
    <linearGradient id="gradient_7" gradientUnits="userSpaceOnUse" x1="-25" y1="0" x2="25" y2="0">
      <stop offset="0" stop-color="#82A473"></stop>
      <stop offset="0.32738096" stop-color="#82A473"></stop>
      <stop offset="0.64880955" stop-color="#878787"></stop>
      <stop offset="1" stop-color="#878787"></stop>
    </linearGradient>
  </defs>
  <path fill="url(#gradient_7)" transform="matrix(0.729701 0 0 1.81392 63.4914 112.147)" d="M-12.5 -0.999996L13 -0.999996L13 1.5L-12.5 1.5L-12.5 -0.999996Z"></path>
  <defs>
    <linearGradient id="gradient_8" gradientUnits="userSpaceOnUse" x1="-25" y1="0" x2="25" y2="0">
      <stop offset="0" stop-color="#82A473"></stop>
      <stop offset="0.32738096" stop-color="#82A473"></stop>
      <stop offset="0.64880955" stop-color="#878787"></stop>
      <stop offset="1" stop-color="#878787"></stop>
    </linearGradient>
  </defs>
  <path fill="url(#gradient_8)" transform="matrix(0.729701 0 0 1.81392 63.4914 118.496)" d="M-12.5 -0.999992L13 -0.999992L13 1.50001L-12.5 1.50001L-12.5 -0.999992Z"></path>
  <defs>
    <linearGradient id="gradient_9" gradientUnits="userSpaceOnUse" x1="-25" y1="0" x2="25" y2="0">
      <stop offset="0" stop-color="#82A473"></stop>
      <stop offset="0.32738096" stop-color="#82A473"></stop>
      <stop offset="0.64880955" stop-color="#878787"></stop>
      <stop offset="1" stop-color="#878787"></stop>
    </linearGradient>
  </defs>
  <path fill="url(#gradient_9)" transform="matrix(1.82425 0 0 1.81392 77.1733 59.5433)" d="M-12.5 -1L13 -1L13 1.5L-12.5 1.5L-12.5 -1Z"></path>
  <defs>
    <linearGradient id="gradient_10" gradientUnits="userSpaceOnUse" x1="-25" y1="0" x2="25" y2="0">
      <stop offset="0" stop-color="#82A473"></stop>
      <stop offset="0.32738096" stop-color="#82A473"></stop>
      <stop offset="0.64880955" stop-color="#878787"></stop>
      <stop offset="1" stop-color="#878787"></stop>
    </linearGradient>
  </defs>
  <path fill="url(#gradient_10)" transform="matrix(0.729701 0 0 1.81392 63.4914 65.8921)" d="M-12.5 -0.999996L13 -0.999996L13 1.5L-12.5 1.5L-12.5 -0.999996Z"></path>
  <defs>
    <linearGradient id="gradient_11" gradientUnits="userSpaceOnUse" x1="-25" y1="0" x2="25" y2="0">
      <stop offset="0" stop-color="#82A473"></stop>
      <stop offset="0.32738096" stop-color="#82A473"></stop>
      <stop offset="0.64880955" stop-color="#878787"></stop>
      <stop offset="1" stop-color="#878787"></stop>
    </linearGradient>
  </defs>
  <path fill="url(#gradient_11)" transform="matrix(0.912126 0 0 1.81392 65.7717 72.6943)" d="M-12.5 -0.999996L13 -0.999996L13 1.5L-12.5 1.5L-12.5 -0.999996Z"></path>
</svg>