<?xml version="1.0" encoding="utf-8"?>
<svg xmlns="http://www.w3.org/2000/svg" xmlns:xlink="http://www.w3.org/1999/xlink" width="118" height="150">
  <path fill="#878787" transform="matrix(1.1 0 0 1.1 59 74.5)" d="M0 -47.5C26.2335 -47.5 47.5 -26.2335 47.5 0C47.5 26.2335 26.2335 47.5 0 47.5C-26.2335 47.5 -47.5 26.2335 -47.5 0C-47.5 -26.2335 -26.2335 -47.5 0 -47.5Z"></path>
  <path fill="#82A473" transform="translate(59 74.5)" d="M0 -47.5C26.2335 -47.5 47.5 -26.2335 47.5 0C47.5 26.2335 26.2335 47.5 0 47.5C-26.2335 47.5 -47.5 26.2335 -47.5 0C-47.5 -26.2335 -26.2335 -47.5 0 -47.5Z"></path>
  <clipPath id="cl_3">
    <path d="M59 27C85.2335 27 106.5 48.2665 106.5 74.5C106.5 100.734 85.2335 122 59 122C32.7665 122 11.5 100.734 11.5 74.5C11.5 48.2665 32.7665 27 59 27Z"></path>
  </clipPath>
  <g clip-path="url(#cl_3)">
    <path fill="#878787" transform="matrix(-1 -8.74228e-08 8.74228e-08 -1 80 74.5)" d="M-2.5 -49L2.5 -49L-5.38973 -1.42109e-14L2.5 49L-2.5 49L-10.3897 -1.42109e-14L-2.5 -49ZM-2.5 0L2.5 0"></path>
    <path fill="#878787" transform="translate(38 74.5)" d="M-2.5 -49L2.5 -49L-5.38973 -1.42109e-14L2.5 49L-2.5 49L-10.3897 -1.42109e-14L-2.5 -49ZM-2.5 0L2.5 0"></path>
    <path fill="#878787" transform="translate(59 74.5)" d="M-2.5 -50.5L2.5 -50.5L2.5 50.5L-2.5 50.5L-2.5 -50.5Z"></path>
  </g>
</svg>