<?xml version="1.0" encoding="utf-8"?>
<svg xmlns="http://www.w3.org/2000/svg" xmlns:xlink="http://www.w3.org/1999/xlink" width="118" height="150">
  <path fill="#878787" transform="matrix(1.1 0 0 1.1 59 75)" d="M-3.8147e-06 -47.5C26.2335 -47.5 47.5 -26.2335 47.5 0C47.5 26.2335 26.2335 47.5 -3.8147e-06 47.5C-26.2335 47.5 -47.5 26.2335 -47.5 0C-47.5 -26.2335 -26.2335 -47.5 -3.8147e-06 -47.5Z"></path>
  <path fill="#82A473" transform="translate(59 75)" d="M0 -47.5C26.2335 -47.5 47.5 -26.2335 47.5 0C47.5 26.2335 26.2335 47.5 0 47.5C-26.2335 47.5 -47.5 26.2335 -47.5 0C-47.5 -26.2335 -26.2335 -47.5 0 -47.5Z"></path>
  <clipPath id="cl_3">
    <path d="M59 27.5C85.2335 27.5 106.5 48.7665 106.5 75C106.5 101.234 85.2335 122.5 59 122.5C32.7665 122.5 11.5 101.234 11.5 75C11.5 48.7665 32.7665 27.5 59 27.5Z"></path>
  </clipPath>
  <g clip-path="url(#cl_3)">
    <path fill="#878787" transform="matrix(-1 -8.74228e-08 8.74228e-08 -1 80 75)" d="M-2.5 -49L2.5 -49L-5.38973 -1.42109e-14L2.5 49L-2.5 49L-10.3897 -1.42109e-14L-2.5 -49ZM-2.5 0L2.5 0"></path>
    <path fill="#878787" transform="translate(38 75)" d="M-2.5 -49L2.5 -49L-5.38973 -1.42109e-14L2.5 49L-2.5 49L-10.3897 -1.42109e-14L-2.5 -49ZM-2.5 0L2.5 0"></path>
    <path fill="#878787" transform="matrix(-4.37114e-08 1 -1 -4.37114e-08 59 59.5)" d="M-2.5 -49L2.5 -49L-5.38973 -1.42109e-14L2.5 49L-2.5 49L-10.3897 -1.42109e-14L-2.5 -49ZM-2.5 0L2.5 0"></path>
    <path fill="#878787" transform="matrix(1.19249e-08 -1 1 1.19249e-08 59 85.5)" d="M-2.5 -49L2.5 -49L-5.38973 -1.42109e-14L2.5 49L-2.5 49L-10.3897 -1.42109e-14L-2.5 -49ZM-2.5 0L2.5 0"></path>
    <path fill="#878787" transform="translate(59 75)" d="M-2.5 -50.5L2.5 -50.5L2.5 50.5L-2.5 50.5L-2.5 -50.5Z"></path>
  </g>
</svg>